<?xml version="1.0" standalone="no"?>
<svg xmlns:xlink="http://www.w3.org/1999/xlink" id="wave" style="transform:rotate(180deg); transition: 0.3s" viewBox="0 0 1440 310" version="1.1" xmlns="http://www.w3.org/2000/svg"><defs><linearGradient id="sw-gradient-0" x1="0" x2="0" y1="1" y2="0"><stop stop-color="rgba(79.917, 228.096, 145.263, 1)" offset="0%"/><stop stop-color="rgba(10.36, 182.56, 80.465, 1)" offset="100%"/></linearGradient></defs><path style="transform:translate(0, 0px); opacity:1" fill="url(#sw-gradient-0)" d="M0,0L15,15.5C30,31,60,62,90,103.3C120,145,150,196,180,186C210,176,240,103,270,62C300,21,330,10,360,10.3C390,10,420,21,450,41.3C480,62,510,93,540,98.2C570,103,600,83,630,77.5C660,72,690,83,720,77.5C750,72,780,52,810,51.7C840,52,870,72,900,93C930,114,960,134,990,149.8C1020,165,1050,176,1080,155C1110,134,1140,83,1170,67.2C1200,52,1230,72,1260,108.5C1290,145,1320,196,1350,217C1380,238,1410,227,1440,206.7C1470,186,1500,155,1530,139.5C1560,124,1590,124,1620,139.5C1650,155,1680,186,1710,191.2C1740,196,1770,176,1800,144.7C1830,114,1860,72,1890,82.7C1920,93,1950,155,1980,170.5C2010,186,2040,155,2070,129.2C2100,103,2130,83,2145,72.3L2160,62L2160,310L2145,310C2130,310,2100,310,2070,310C2040,310,2010,310,1980,310C1950,310,1920,310,1890,310C1860,310,1830,310,1800,310C1770,310,1740,310,1710,310C1680,310,1650,310,1620,310C1590,310,1560,310,1530,310C1500,310,1470,310,1440,310C1410,310,1380,310,1350,310C1320,310,1290,310,1260,310C1230,310,1200,310,1170,310C1140,310,1110,310,1080,310C1050,310,1020,310,990,310C960,310,930,310,900,310C870,310,840,310,810,310C780,310,750,310,720,310C690,310,660,310,630,310C600,310,570,310,540,310C510,310,480,310,450,310C420,310,390,310,360,310C330,310,300,310,270,310C240,310,210,310,180,310C150,310,120,310,90,310C60,310,30,310,15,310L0,310Z"/></svg>